HIERARCHY
ROOT joint_Root
{
  OFFSET 0 0 0
  CHANNELS 6 Xposition Yposition Zposition Zrotation Xrotation Yrotation
  JOINT Hips
  {
    OFFSET 0 93.9241 -3
    CHANNELS 6 Xposition Yposition Zposition Zrotation Xrotation Yrotation
    JOINT Spine
    {
      OFFSET 15.7357 0 0
      CHANNELS 6 Xposition Yposition Zposition Zrotation Xrotation Yrotation
      JOINT Chest
      {
        OFFSET 8.98455 -0.406207 0
        CHANNELS 6 Xposition Yposition Zposition Zrotation Xrotation Yrotation
        JOINT Neck
        {
          OFFSET 16.3773 0 0
          CHANNELS 6 Xposition Yposition Zposition Zrotation Xrotation Yrotation
          JOINT Head
          {
            OFFSET 6.45672 0 0
            CHANNELS 6 Xposition Yposition Zposition Zrotation Xrotation Yrotation
            End Site
            {
              OFFSET 0 0 0
            }
          }
        }
        JOINT Shoulder_L
        {
          OFFSET 12.9942 -0.242716 4.98039
          CHANNELS 6 Xposition Yposition Zposition Zrotation Xrotation Yrotation
          JOINT UpperArm_L
          {
            OFFSET 5.34809 0 0
            CHANNELS 6 Xposition Yposition Zposition Zrotation Xrotation Yrotation
            JOINT LowerArm_L
            {
              OFFSET 24.3286 1.87007e-05 0
              CHANNELS 6 Xposition Yposition Zposition Zrotation Xrotation Yrotation
              JOINT Hand_L
              {
                OFFSET 22.2916 0 0
                CHANNELS 6 Xposition Yposition Zposition Zrotation Xrotation Yrotation
                End Site
                {
                  OFFSET 0 0 0
                }
              }
            }
          }
        }
        JOINT Shoulder_R
        {
          OFFSET 12.9945 -0.242716 -4.98039
          CHANNELS 6 Xposition Yposition Zposition Zrotation Xrotation Yrotation
          JOINT UpperArm_R
          {
            OFFSET -5.34813 0 0
            CHANNELS 6 Xposition Yposition Zposition Zrotation Xrotation Yrotation
            JOINT LowerArm_R
            {
              OFFSET -24.3289 0.000322201 0
              CHANNELS 6 Xposition Yposition Zposition Zrotation Xrotation Yrotation
              JOINT Hand_R
              {
                OFFSET -22.2915 -0.000108084 0
                CHANNELS 6 Xposition Yposition Zposition Zrotation Xrotation Yrotation
                End Site
                {
                  OFFSET 0 0 0
                }
              }
            }
          }
        }
      }
    }
    JOINT UpperLeg_L
    {
      OFFSET -2.19248 -6.46944 0
      CHANNELS 6 Xposition Yposition Zposition Zrotation Xrotation Yrotation
      JOINT LowerLeg_L
      {
        OFFSET 39.0811 0 -1.23785e-05
        CHANNELS 6 Xposition Yposition Zposition Zrotation Xrotation Yrotation
        JOINT Foot_L
        {
          OFFSET 40.9854 0 -1.26872e-05
          CHANNELS 6 Xposition Yposition Zposition Zrotation Xrotation Yrotation
          JOINT Toes_L
          {
            OFFSET 11.7543 0 0
            CHANNELS 6 Xposition Yposition Zposition Zrotation Xrotation Yrotation
            End Site
            {
              OFFSET 0 0 0
            }
          }
        }
      }
    }
    JOINT UpperLeg_R
    {
      OFFSET -2.19251 6.46944 0
      CHANNELS 6 Xposition Yposition Zposition Zrotation Xrotation Yrotation
      JOINT LowerLeg_R
      {
        OFFSET -39.0811 -0.00228153 -0.0401928
        CHANNELS 6 Xposition Yposition Zposition Zrotation Xrotation Yrotation
        JOINT Foot_R
        {
          OFFSET -40.9854 0 0
          CHANNELS 6 Xposition Yposition Zposition Zrotation Xrotation Yrotation
          JOINT Toes_R
          {
            OFFSET -11.7543 0 0
            CHANNELS 6 Xposition Yposition Zposition Zrotation Xrotation Yrotation
            End Site
            {
              OFFSET 0 0 0
            }
          }
        }
      }
    }
  }
}
MOTION
Frames:	7
Frame Time:	0.0333333
0 0 0 0 0 -0 0.0563909 89.4432 -13.5104 89.1142 1.92298 7.37993 15.7357 5.1072e-06 -5.51765e-07 107.601 74.5213 -107.798 8.98455 -0.406207 -4.3199e-07 21.9551 9.08924 -2.16349 16.3773 -1.3905e-06 -6.99897e-07 3.01973 -6.45993 3.25366 6.45672 -1.25837e-06 -1.02172e-07 16.58 -14.0006 10.9048 12.9942 -0.242716 4.98039 -89.5014 -12.6248 -102.72 5.34809 -7.22636e-06 -6.2814e-07 -70.7643 31.3085 -20.992 24.3286 1.87007e-05 4.90208e-06 10.4457 -8.1506 -127.561 22.2916 -9.88446e-07 4.63217e-06 11.6714 5.20337 2.63439 12.9945 -0.242716 -4.98039 89.1183 -15.0083 -108.401 -5.34813 -1.25947e-06 -3.79883e-06 -87.8686 -32.6068 -95.7135 -24.3289 0.000322201 -8.65921e-06 -26.3596 -77.477 -26.9118 -22.2915 -0.000108084 -4.47941e-06 16.0085 5.63998 -14.1207 -2.19248 -6.46944 -1.22534e-07 -176.707 18.4775 -19.9346 39.0811 -6.73843e-06 -1.23785e-05 -0.023644 0.0484939 34.0659 40.9854 -6.48686e-06 -1.26872e-05 -2.84056 6.75888 -58.4423 11.7543 -2.30145e-07 3.05095e-06 0.0424002 -0.0473899 -17.041 -2.19251 6.46944 -1.45247e-06 -173.422 6.74343 169.345 -39.0811 -0.00228153 -0.0401928 -0.0944172 0.158579 36.0519 -40.9854 7.72618e-06 5.99936e-06 3.4963 -12.5037 -69.2562 -11.7543 -5.6619e-06 -5.58687e-06 -0.0629634 0.0444096 -16.5731 
0 0 0 0 0 -0 0.013881 89.4515 -13.4772 89.1153 2.01823 7.31754 15.7357 5.1072e-06 -5.51765e-07 107.674 74.5048 -107.859 8.98455 -0.406207 -4.3199e-07 21.9762 9.13669 -2.1503 16.3773 -1.3905e-06 -6.99897e-07 2.96836 -6.49512 3.2562 6.45672 -1.25837e-06 -1.02172e-07 16.4784 -14.0506 11.042 12.9942 -0.242716 4.98039 -89.4944 -12.6602 -102.694 5.34809 -7.22636e-06 -6.2814e-07 -70.5672 31.4634 -21.1947 24.3286 1.87007e-05 4.90208e-06 10.4864 -8.17894 -127.546 22.2916 -9.88446e-07 4.63217e-06 11.6638 5.20399 2.61883 12.9945 -0.242716 -4.98039 89.1249 -14.9778 -108.383 -5.34813 -1.25947e-06 -3.79883e-06 -87.8855 -32.7337 -95.9092 -24.3289 0.000322201 -8.65921e-06 -24.9436 -77.4777 -25.4743 -22.2915 -0.000108084 -4.47941e-06 16.0934 5.64056 -14.1753 -2.19248 -6.46944 -1.22534e-07 -176.677 18.5112 -19.976 39.0811 -6.73843e-06 -1.23785e-05 -0.0237018 0.0464302 34.0463 40.9854 -6.48686e-06 -1.26872e-05 -2.84257 6.82159 -58.4563 11.7543 -2.30145e-07 3.05095e-06 0.043639 -0.048791 -17.0546 -2.19251 6.46944 -1.45247e-06 -173.394 6.79816 169.334 -39.0811 -0.00228153 -0.0401928 -0.0939384 0.158297 35.9919 -40.9854 7.72618e-06 5.99936e-06 3.51433 -12.5378 -69.2596 -11.7543 -5.6619e-06 -5.58687e-06 -0.0651292 0.0458776 -16.5732 
0 0 0 0 0 -0 -0.0281784 89.4653 -13.4286 89.0996 2.12472 7.26757 15.7357 5.1072e-06 -5.51765e-07 107.707 74.4832 -107.88 8.98455 -0.406207 -4.3199e-07 22.0124 9.16659 -2.13448 16.3773 -1.3905e-06 -6.99897e-07 2.9752 -6.53037 3.29288 6.45672 -1.25837e-06 -1.02172e-07 16.2341 -14.0969 11.1349 12.9942 -0.242716 4.98039 -89.4879 -12.6265 -102.659 5.34809 -7.22636e-06 -6.2814e-07 -70.3758 31.5313 -21.3273 24.3286 1.87007e-05 4.90208e-06 10.6508 -8.30874 -127.539 22.2916 -9.88446e-07 4.63217e-06 11.6977 5.20477 2.59924 12.9945 -0.242716 -4.98039 89.137 -14.963 -108.339 -5.34813 -1.25947e-06 -3.79883e-06 -87.8412 -32.8236 -95.969 -24.3289 0.000322201 -8.65921e-06 -25.1588 -77.7879 -25.6661 -22.2915 -0.000108084 -4.47941e-06 15.7714 5.64122 -14.2275 -2.19248 -6.46944 -1.22534e-07 -176.635 18.5086 -19.994 39.0811 -6.73843e-06 -1.23785e-05 -0.0256653 0.0481683 34.0051 40.9854 -6.48686e-06 -1.26872e-05 -2.8393 6.89805 -58.4574 11.7543 -2.30145e-07 3.05095e-06 0.0422244 -0.0471922 -17.0389 -2.19251 6.46944 -1.45247e-06 -173.347 6.86174 169.361 -39.0811 -0.00228153 -0.0401928 -0.0911127 0.15482 35.8916 -40.9854 7.72618e-06 5.99936e-06 3.5342 -12.5808 -69.251 -11.7543 -5.6619e-06 -5.58687e-06 -0.0648291 0.0456372 -16.573 
0 0 0 0 0 -0 -0.0736091 89.477 -13.3824 89.103 2.21542 7.2015 15.7357 5.1072e-06 -5.51765e-07 107.742 74.442 -107.906 8.98455 -0.406207 -4.3199e-07 22.087 9.20804 -2.13024 16.3773 -1.3905e-06 -6.99897e-07 2.83184 -6.57549 3.27373 6.45672 -1.25837e-06 -1.02172e-07 16.0891 -14.1511 11.2542 12.9942 -0.242716 4.98039 -89.4889 -12.6403 -102.665 5.34809 -7.22636e-06 -6.2814e-07 -70.3751 31.4133 -21.3388 24.3286 1.87007e-05 4.90208e-06 11.682 -9.11478 -127.458 22.2916 -9.88446e-07 4.63217e-06 11.4532 5.2104 2.45761 12.9945 -0.242716 -4.98039 89.1632 -14.9828 -108.233 -5.34813 -1.25947e-06 -3.79883e-06 -88.0573 -32.8915 -96.186 -24.3289 0.000322201 -8.65921e-06 -25.2974 -77.6409 -25.8194 -22.2915 -0.000108084 -4.47941e-06 16.061 5.64052 -14.1698 -2.19248 -6.46944 -1.22534e-07 -176.613 18.528 -20.0214 39.0811 -6.73843e-06 -1.23785e-05 -0.0241135 0.0460489 33.9736 40.9854 -6.48686e-06 -1.26872e-05 -2.83804 6.93587 -58.4732 11.7543 -2.30145e-07 3.05095e-06 0.0446079 -0.0498751 -17.0652 -2.19251 6.46944 -1.45247e-06 -173.327 6.90522 169.361 -39.0811 -0.00228153 -0.0401928 -0.0939404 0.159217 35.8219 -40.9854 7.72618e-06 5.99936e-06 3.55286 -12.5955 -69.2551 -11.7543 -5.6619e-06 -5.58687e-06 -0.0666565 0.0468731 -16.573 
0 0 0 0 0 -0 -0.108889 89.4919 -13.3396 89.1325 2.25467 7.14334 15.7357 5.1072e-06 -5.51765e-07 107.73 74.4002 -107.914 8.98455 -0.406207 -4.3199e-07 22.1716 9.2225 -2.18113 16.3773 -1.3905e-06 -6.99897e-07 2.75647 -6.60115 3.31178 6.45672 -1.25837e-06 -1.02172e-07 15.8377 -14.1521 11.3097 12.9942 -0.242716 4.98039 -89.4768 -12.6747 -102.617 5.34809 -7.22636e-06 -6.2814e-07 -70.4107 31.2585 -21.2713 24.3286 1.87007e-05 4.90208e-06 12.0233 -9.38072 -127.427 22.2916 -9.88446e-07 4.63217e-06 11.341 5.21295 2.39229 12.9945 -0.242716 -4.98039 89.2023 -14.9284 -108.094 -5.34813 -1.25947e-06 -3.79883e-06 -87.3959 -32.8942 -96.135 -24.3289 0.000322201 -8.65921e-06 -24.4779 -78.0736 -24.952 -22.2915 -0.000108084 -4.47941e-06 15.9894 5.64454 -14.5148 -2.19248 -6.46944 -1.22534e-07 -176.606 18.5683 -20.0186 39.0811 -6.73843e-06 -1.23785e-05 -0.0244702 0.0482024 33.9059 40.9854 -6.48686e-06 -1.26872e-05 -2.85536 6.9629 -58.4786 11.7543 -2.30145e-07 3.05095e-06 0.0380638 -0.0425039 -16.9934 -2.19251 6.46944 -1.45247e-06 -173.323 6.92082 169.371 -39.0811 -0.00228153 -0.0401928 -0.0926301 0.157706 35.7436 -40.9854 7.72618e-06 5.99936e-06 3.55676 -12.6718 -69.2534 -11.7543 -5.6619e-06 -5.58687e-06 -0.0734214 0.0516157 -16.5729 
0 0 0 0 0 -0 -0.146495 89.5054 -13.2881 89.1765 2.27314 7.09702 15.7357 5.1072e-06 -5.51765e-07 107.703 74.3428 -107.907 8.98455 -0.406207 -4.3199e-07 22.2889 9.23765 -2.23352 16.3773 -1.3905e-06 -6.99897e-07 2.61159 -6.61481 3.27486 6.45672 -1.25837e-06 -1.02172e-07 15.6616 -14.1228 11.3614 12.9942 -0.242716 4.98039 -89.4618 -12.6435 -102.542 5.34809 -7.22636e-06 -6.2814e-07 -70.3648 31.1874 -21.2538 24.3286 1.87007e-05 4.90208e-06 11.9436 -9.31457 -127.423 22.2916 -9.88446e-07 4.63217e-06 11.5747 5.21155 2.42791 12.9945 -0.242716 -4.98039 89.2283 -14.9343 -107.992 -5.34813 -1.25947e-06 -3.79883e-06 -87.5899 -32.8593 -96.4142 -24.3289 0.000322201 -8.65921e-06 -24.3703 -78.0635 -24.8435 -22.2915 -0.000108084 -4.47941e-06 15.9352 5.64289 -14.3721 -2.19248 -6.46944 -1.22534e-07 -176.626 18.5392 -20.0002 39.0811 -6.73843e-06 -1.23785e-05 -0.0243382 0.0482115 33.8468 40.9854 -6.48686e-06 -1.26872e-05 -2.85679 6.9881 -58.4865 11.7543 -2.30145e-07 3.05095e-06 0.0420312 -0.0469741 -17.0369 -2.19251 6.46944 -1.45247e-06 -173.325 6.86366 169.396 -39.0811 -0.00228153 -0.0401928 -0.0886217 0.15218 35.6767 -40.9854 7.72618e-06 5.99936e-06 3.57166 -12.7177 -69.2563 -11.7543 -5.6619e-06 -5.58687e-06 -0.0601895 0.0422865 -16.5732 
0 0 0 0 0 -0 -0.17635 89.5095 -13.2382 89.2157 2.28101 7.0599 15.7357 5.1072e-06 -5.51765e-07 107.739 74.2766 -107.949 8.98455 -0.406207 -4.3199e-07 22.4134 9.29097 -2.26809 16.3773 -1.3905e-06 -6.99897e-07 2.46685 -6.64974 3.29061 6.45672 -1.25837e-06 -1.02172e-07 15.5165 -14.1227 11.2584 12.9942 -0.242716 4.98039 -89.4683 -12.5877 -102.561 5.34809 -7.22636e-06 -6.2814e-07 -70.3374 31.0247 -21.2154 24.3286 1.87007e-05 4.90208e-06 11.9521 -9.33457 -127.461 22.2916 -9.88446e-07 4.63217e-06 11.6864 5.21262 2.4011 12.9945 -0.242716 -4.98039 89.268 -15.0276 -107.821 -5.34813 -1.25947e-06 -3.79883e-06 -87.4323 -32.833 -96.534 -24.3289 0.000322201 -8.65921e-06 -23.7939 -78.2121 -24.2471 -22.2915 -0.000108084 -4.47941e-06 16.0285 5.64521 -14.5746 -2.19248 -6.46944 -1.22534e-07 -176.637 18.5445 -20.0031 39.0811 -6.73843e-06 -1.23785e-05 -0.0260073 0.0489144 33.8365 40.9854 -6.48686e-06 -1.26872e-05 -2.86901 6.98722 -58.5167 11.7543 -2.30145e-07 3.05095e-06 0.033611 -0.0374932 -16.9443 -2.19251 6.46944 -1.45247e-06 -173.323 6.74816 169.4 -39.0811 -0.00228153 -0.0401928 -0.0880969 0.151626 35.659 -40.9854 7.72618e-06 5.99936e-06 3.56033 -12.8143 -69.2748 -11.7543 -5.6619e-06 -5.58687e-06 -0.0614011 0.0431609 -16.5731 
